<?xml version="1.0" standalone="no"?>
<!DOCTYPE svg PUBLIC "-//W3C//DTD SVG 20010904//EN"
 "http://www.w3.org/TR/2001/REC-SVG-20010904/DTD/svg10.dtd">
<svg version="1.0" xmlns="http://www.w3.org/2000/svg"
 width="96px" height="96px" viewBox="0 0 400.000000 272.000000"
 preserveAspectRatio="xMidYMid meet">
<metadata>
Created by potrace 1.16, written by Peter Selinger 2001-2019
</metadata>
<g transform="translate(0.000000,272.000000) scale(0.100000,-0.100000)"
fill="#000000" stroke="none">
<path d="M1482 1993 c0 -5 -2 -15 -5 -23 -26 -64 -77 -236 -77 -260 0 -17 -5
-30 -11 -30 -6 0 -8 -8 -4 -19 3 -11 2 -22 -4 -25 -5 -3 -16 -41 -25 -83 -10
-43 -28 -100 -41 -128 -22 -44 -25 -69 -31 -200 -4 -82 -11 -154 -16 -160 -6
-6 -7 0 -3 16 4 16 2 30 -4 33 -6 4 -11 13 -11 19 0 7 4 6 10 -3 7 -10 8 22 4
95 -4 61 -8 111 -9 113 -2 2 -6 -54 -10 -124 -7 -109 -5 -135 10 -176 9 -27
15 -57 12 -68 -3 -11 1 -21 9 -24 19 -7 18 -30 -1 -46 -10 -8 -12 -16 -6 -19
14 -9 20 -210 6 -215 -5 -2 6 -4 25 -4 19 0 28 2 19 5 -21 5 -31 116 -18 187
5 26 6 53 3 58 -4 5 -2 20 4 31 18 38 41 178 47 287 9 158 24 283 47 400 12
58 22 114 23 125 1 11 7 33 13 48 7 16 12 34 12 40 0 7 8 35 19 62 30 80 33
95 22 95 -6 0 -10 -3 -9 -7z"/>
<path d="M3305 1491 c-107 -28 -179 -142 -192 -301 -10 -134 25 -271 84 -326
50 -47 83 -59 163 -59 82 0 137 23 172 70 38 51 60 212 42 304 l-6 31 -94 0
-94 0 0 -55 c0 -54 0 -55 30 -55 30 0 30 0 30 -56 0 -81 -28 -124 -79 -124
-44 0 -66 20 -87 77 -18 53 -17 207 2 258 9 22 16 48 17 57 1 9 3 15 5 13 2
-2 20 8 39 21 20 13 50 24 67 24 35 0 96 -33 97 -52 1 -28 17 30 23 88 7 59 7
60 -21 73 -33 16 -155 23 -198 12z"/>
<path d="M1943 1482 l-193 -2 0 -29 c0 -16 -3 -42 -6 -59 l-6 -30 45 5 c25 3
57 3 71 -1 l26 -6 0 -275 0 -275 70 0 70 0 0 275 0 274 35 7 c20 3 49 4 65 0
28 -5 30 -3 29 22 0 15 -3 43 -7 62 l-7 35 -192 -3z"/>
<path d="M2211 1433 c11 -55 98 -542 106 -590 l6 -33 63 0 c34 0 65 3 67 8 3
4 17 88 32 187 15 99 29 182 31 184 6 7 11 -19 39 -201 l27 -178 65 0 c42 0
65 4 67 13 2 6 23 118 46 247 24 129 50 274 59 323 l17 87 -72 0 -73 0 -5 -42
c-10 -75 -36 -316 -36 -333 0 -8 -4 -15 -8 -15 -4 0 -20 80 -36 178 -15 97
-30 185 -32 195 -4 13 -16 17 -57 17 l-52 0 -29 -182 c-16 -101 -31 -190 -33
-198 -10 -31 -21 27 -39 203 l-18 177 -71 0 -72 0 8 -47z"/>
<path d="M2900 1145 l0 -335 70 0 70 0 0 335 0 335 -70 0 -70 0 0 -335z"/>
</g>
</svg>
